PathFileType	4	(X/Y/Z)	C:/Users/opensim2020/Desktop/walking_exp_matlab/subject03_walking04_straight_04.trc																																																																																																																																																							
DataRate	CameraRate	NumFrames	NumMarkers	Units	OrigDataRate	OrigDataStartFrame	OrigNumFrames																																																																																																																																																			
100	100	5	51	mm	100	3062	293																																																																																																																																																			
Frame#	Time	LFHD			RFHD			LBHD			RBHD			C7			T10			CLAV			STRN			RBAK			LSHO			LUPA			LELB			LFRM			LWRA			LWRB			LFIN			RSHO			RUPA			RELB			RFRM			RWRA			RWRB			RFIN			LASI			RASI			LPSI			RPSI			LTHI			LKNE			LTIB			LANK			LHEE			LTOE			RTHI			RKNE			RTIB			RANK			RHEE			RTOE			*39			*40			*41			*42			*43			*44			*45			*46			*47			*48			*49			*50		
		X1	Y1	Z1	X2	Y2	Z2	X3	Y3	Z3	X4	Y4	Z4	X5	Y5	Z5	X6	Y6	Z6	X7	Y7	Z7	X8	Y8	Z8	X9	Y9	Z9	X10	Y10	Z10	X11	Y11	Z11	X12	Y12	Z12	X13	Y13	Z13	X14	Y14	Z14	X15	Y15	Z15	X16	Y16	Z16	X17	Y17	Z17	X18	Y18	Z18	X19	Y19	Z19	X20	Y20	Z20	X21	Y21	Z21	X22	Y22	Z22	X23	Y23	Z23	X24	Y24	Z24	X25	Y25	Z25	X26	Y26	Z26	X27	Y27	Z27	X28	Y28	Z28	X29	Y29	Z29	X30	Y30	Z30	X31	Y31	Z31	X32	Y32	Z32	X33	Y33	Z33	X34	Y34	Z34	X35	Y35	Z35	X36	Y36	Z36	X37	Y37	Z37	X38	Y38	Z38	X39	Y39	Z39	X40	Y40	Z40	X41	Y41	Z41	X42	Y42	Z42	X43	Y43	Z43	X44	Y44	Z44	X45	Y45	Z45	X46	Y46	Z46	X47	Y47	Z47	X48	Y48	Z48	X49	Y49	Z49	X50	Y50	Z50	X51	Y51	Z51
																																																																																																																																																										
37	0.36	-1164.84363	1611.47949	-1678.02283	-1197.39819	1618.38757	-1548.92505	-1289.39844	1563.12671	-1702.86389	-1316.25757	1570.33997	-1574.77307	-1330.96106	1411.29565	-1645.56519	-1374.05164	1099.21155	-1649.25208	-1211.79883	1331.87317	-1623.41223	-1173.35876	1165.57446	-1631.93066	-1401.8313	1234.84753	-1563.07483	-1224.66357	1374.54126	-1780.79578	-1178.71069	1193.40735	-1861.23694	-1131.11438	1081.56067	-1876.63635	-1050.23865	982.82678	-1859.58154	-984.92267	891.73627	-1812.229	-993.18768	884.39941	-1866.479	-937.16565	826.15234	-1844.5603	-1285.33813	1351.92847	-1473.96631	-1321.94385	1132.15234	-1404.80811	-1323.25488	1019.85419	-1387.66516	-1323.11011	882.44885	-1382.33252	-1298.34717	783.40723	-1410.85522	-1338.54663	783.1994	-1373.72656	-1323.07849	709.89178	-1379.62793	-1205.41516	932.84857	-1760.87964	-1213.16162	929.79163	-1521.23755	-1367.54504	960.27289	-1711.34155	-1372.69189	959.06622	-1564.1449	-1308.69495	639.45081	-1794.77759	-1347.98389	465.35147	-1757.08496	-1445.74048	292.67456	-1759.74756	-1518.96338	93.77155	-1719.38123	-1566.32019	66.98267	-1684.42615	-1375.54736	34.31186	-1684.44788	-1214.92151	635.14691	-1476.01929	-1135.99524	473.5867	-1519.36243	-1116.61108	290.34195	-1514.83276	-1058.5553	80.04717	-1557.1864	-1087.68005	40.88444	-1613.58704	-912.75269	70.95971	-1569.11108	-1258.93701	1671.47778	-1650.45984	NaN	NaN	NaN	NaN	NaN	NaN	NaN	NaN	NaN	NaN	NaN	NaN	NaN	NaN	NaN	NaN	NaN	NaN	NaN	NaN	NaN	NaN	NaN	NaN	NaN	NaN	NaN	NaN	NaN	NaN	NaN	NaN	NaN
38	0.37	-1156.4552	1610.724	-1677.40479	-1188.93762	1617.70422	-1548.22632	-1280.85474	1561.83362	-1702.07373	-1307.59949	1569.0531	-1573.97595	-1322.04626	1410.31506	-1644.48511	-1364.84692	1098.12305	-1648.1748	-1202.62793	1331.01489	-1622.75476	-1163.94739	1164.76074	-1631.64063	-1392.0592	1233.56995	-1561.91418	-1215.96814	1373.72839	-1780.05481	-1170.16248	1192.505	-1860.43494	-1122.54016	1080.72888	-1875.7124	-1041.49182	982.27448	-1858.25671	-975.98053	891.48083	-1810.51123	-984.04102	883.97717	-1864.77734	-927.88953	826.01233	-1842.5481	-1275.66406	1350.76624	-1472.97156	-1312.44006	1130.88464	-1404.16858	-1314.07043	1018.59479	-1387.48376	-1314.4198	881.16235	-1382.57166	-1289.98706	782.12354	-1411.40405	-1330.12781	781.91766	-1374.36255	-1314.94336	708.57581	-1380.49133	-1196.53442	932.02057	-1760.61035	-1203.06445	928.76453	-1521.05322	-1358.39514	959.13269	-1710.12427	-1362.84924	958.13434	-1562.91772	-1301.27185	639.09039	-1794.6073	-1341.42786	465.02484	-1757.26465	-1441.5752	293.44781	-1759.73364	-1517.89001	95.74737	-1719.56055	-1565.59436	69.58057	-1684.51038	-1375.43201	34.22815	-1684.4353	-1206.88672	633.80658	-1476.75452	-1128.74707	471.84711	-1519.31079	-1106.32336	289.72336	-1514.38123	-1043.9585	80.50982	-1556.32886	-1071.94165	40.84138	-1612.78223	-897.35352	73.11952	-1568.27808	-1250.7395	1670.37878	-1649.82288	NaN	NaN	NaN	NaN	NaN	NaN	NaN	NaN	NaN	NaN	NaN	NaN	NaN	NaN	NaN	NaN	NaN	NaN	NaN	NaN	NaN	NaN	NaN	NaN	NaN	NaN	NaN	NaN	NaN	NaN	NaN	NaN	NaN
39	0.38	-1148.07959	1610.06995	-1676.70349	-1180.26038	1616.98328	-1547.57104	-1272.29187	1560.66211	-1701.2323	-1298.88342	1567.87769	-1573.06006	-1313.08826	1409.29993	-1643.26343	-1355.39929	1097.10303	-1647.05139	-1193.45264	1330.21387	-1621.97119	-1154.6521	1164.00598	-1631.23889	-1382.05884	1232.2345	-1560.58789	-1207.21582	1373.02856	-1779.297	-1161.74097	1191.64404	-1859.63782	-1114.11426	1079.90247	-1874.71057	-1032.97058	981.50116	-1856.88892	-967.36505	891.03485	-1808.91748	-975.36713	883.35577	-1863.18359	-919.08893	825.6156	-1840.70227	-1265.52515	1349.64514	-1471.86804	-1302.4082	1129.78271	-1403.62	-1304.59473	1017.37457	-1387.30212	-1305.48218	879.98431	-1382.77148	-1281.21594	781.01593	-1412.03979	-1321.36621	780.70081	-1374.94983	-1306.46155	707.35052	-1381.51575	-1187.26624	931.07965	-1760.31592	-1192.84619	927.92969	-1520.78406	-1348.98938	958.14154	-1708.9552	-1352.80212	957.33569	-1561.60046	-1293.4563	638.63947	-1794.33606	-1334.52905	464.61557	-1757.40869	-1437.12244	294.2229	-1759.7157	-1516.49048	97.66184	-1719.55469	-1564.65039	72.29356	-1684.56689	-1375.31641	34.13167	-1684.36511	-1198.41028	632.75635	-1477.60315	-1120.98999	470.50137	-1519.1759	-1096.71155	289.03384	-1513.85876	-1031.41614	80.47253	-1555.55261	-1059.27869	40.27753	-1611.82251	-884.77106	74.38045	-1567.87585	-1242.53699	1669.37073	-1649.0918	NaN	NaN	NaN	NaN	NaN	NaN	NaN	NaN	NaN	NaN	NaN	NaN	NaN	NaN	NaN	NaN	NaN	NaN	NaN	NaN	NaN	NaN	NaN	NaN	NaN	NaN	NaN	NaN	NaN	NaN	NaN	NaN	NaN
40	0.39	-1139.6261	1609.52734	-1676.02844	-1171.68506	1616.38452	-1546.86597	-1263.70508	1559.64954	-1700.31689	-1290.21973	1566.88684	-1572.15576	-1304.10693	1408.34985	-1642.04822	-1345.79443	1096.07751	-1645.94714	-1184.15161	1329.64417	-1621.2345	-1144.56445	1163.10022	-1630.70203	-1372.0083	1231.021	-1559.19543	-1198.48352	1372.44934	-1778.52161	-1153.48206	1190.84399	-1858.75	-1105.83948	1078.96655	-1873.59338	-1024.73645	980.70538	-1855.66296	-959.13696	890.43903	-1807.41187	-967.08368	882.55304	-1861.64185	-910.77942	824.9541	-1838.98438	-1255.62573	1348.7594	-1470.82947	-1292.24561	1128.78345	-1402.87378	-1294.79358	1016.32147	-1387.02258	-1296.0979	878.9104	-1383.03857	-1272.22473	779.94836	-1412.76526	-1312.39392	779.66504	-1375.44067	-1297.64136	706.224	-1382.52637	-1177.84131	930.28668	-1759.98682	-1182.56812	927.23792	-1520.42664	-1339.39441	957.1662	-1707.70129	-1342.61328	956.69629	-1560.38074	-1285.20093	638.14117	-1793.98193	-1327.14844	464.12451	-1757.42432	-1432.44324	295.12259	-1759.75305	-1515.25244	99.93438	-1719.85229	-1563.76208	75.48331	-1684.87219	-1375.15991	34.1225	-1684.38831	-1189.42297	632.06036	-1478.18787	-1112.14966	469.58087	-1518.98633	-1087.68103	288.26535	-1513.32886	-1022.40509	79.30931	-1554.97363	-1049.91919	38.97672	-1610.98889	-875.25647	74.33987	-1567.90906	-1234.31335	1668.48376	-1648.24597	NaN	NaN	NaN	NaN	NaN	NaN	NaN	NaN	NaN	NaN	NaN	NaN	NaN	NaN	NaN	NaN	NaN	NaN	NaN	NaN	NaN	NaN	NaN	NaN	NaN	NaN	NaN	NaN	NaN	NaN	NaN	NaN	NaN
41	0.4	-1131.10864	1609.099	-1675.27368	-1162.95044	1615.86279	-1546.11792	-1255.06982	1558.72412	-1699.31995	-1281.30322	1565.88171	-1571.13538	-1295.05811	1407.40686	-1640.74609	-1336.14282	1095.19421	-1645.08435	-1174.73096	1329.12097	-1620.45825	-1135.53552	1162.92932	-1630.27612	-1361.87036	1229.89563	-1557.66138	-1189.73083	1372.00769	-1777.71362	-1145.29272	1190.02954	-1857.78625	-1097.85449	1078.10999	-1872.52148	-1016.82434	979.83484	-1854.49988	-951.25232	889.55933	-1806.02441	-959.24353	881.60217	-1860.24487	-902.95544	824.01978	-1837.40991	-1245.54382	1348.09705	-1469.76965	-1281.72314	1127.88647	-1402.15234	-1284.68677	1015.36719	-1386.69385	-1286.29749	877.86139	-1383.32397	-1262.84534	778.94507	-1413.48792	-1302.88391	778.63538	-1376.08337	-1288.47461	705.18262	-1383.59497	-1168.12842	929.48474	-1759.48889	-1172.04626	926.72052	-1519.98572	-1329.54028	956.29614	-1706.68005	-1332.3252	956.22284	-1559.27478	-1276.44275	637.54449	-1793.59753	-1319.33521	463.62439	-1757.5459	-1427.38708	296.00034	-1759.74292	-1513.62683	102.28189	-1719.95105	-1562.52197	78.77164	-1685.02881	-1374.94409	34.06564	-1684.4137	-1179.44946	631.8316	-1478.45398	-1102.34058	469.06271	-1518.65735	-1079.1554	287.26282	-1512.93408	-1015.67487	77.63589	-1554.78271	-1043.76843	37.29843	-1610.57751	-868.76538	72.28177	-1568.41589	-1225.96411	1667.73889	-1647.28967	NaN	NaN	NaN	NaN	NaN	NaN	NaN	NaN	NaN	NaN	NaN	NaN	NaN	NaN	NaN	NaN	NaN	NaN	NaN	NaN	NaN	NaN	NaN	NaN	NaN	NaN	NaN	NaN	NaN	NaN	NaN	NaN	NaN
